<mxfile host="app.diagrams.net" modified="2021-12-25T16:25:20.648Z" agent="5.0 (Macintosh; Intel Mac OS X 10_15_7) AppleWebKit/537.36 (KHTML, like Gecko) Chrome/96.0.4664.110 Safari/537.36" etag="3EMsN6KK478IAvuoLgKp" version="16.1.0" type="github">
  <diagram name="Page-1" id="74e2e168-ea6b-b213-b513-2b3c1d86103e">
    <mxGraphModel dx="840" dy="1619" grid="1" gridSize="10" guides="1" tooltips="1" connect="1" arrows="1" fold="1" page="1" pageScale="1" pageWidth="1100" pageHeight="850" background="none" math="0" shadow="0">
      <root>
        <mxCell id="0" />
        <mxCell id="1" parent="0" />
        <mxCell id="77e6c97f196da883-1" value="数据加密脱敏系统流程图" style="swimlane;html=1;childLayout=stackLayout;startSize=20;rounded=0;shadow=0;labelBackgroundColor=none;strokeWidth=1;fontFamily=Verdana;fontSize=8;align=center;" parent="1" vertex="1">
          <mxGeometry x="70" y="40" width="640" height="500" as="geometry">
            <mxRectangle x="70" y="40" width="160" height="20" as="alternateBounds" />
          </mxGeometry>
        </mxCell>
        <mxCell id="77e6c97f196da883-2" value="业务方" style="swimlane;html=1;startSize=20;" parent="77e6c97f196da883-1" vertex="1">
          <mxGeometry y="20" width="160" height="480" as="geometry" />
        </mxCell>
        <mxCell id="-Oqs4p4Zk8yDsz0VDsW7-6" value="" style="verticalLabelPosition=bottom;verticalAlign=top;html=1;shape=mxgraph.flowchart.on-page_reference;shadow=0;container=0;" vertex="1" parent="77e6c97f196da883-2">
          <mxGeometry x="50" y="62.5" width="40" height="40" as="geometry" />
        </mxCell>
        <mxCell id="-Oqs4p4Zk8yDsz0VDsW7-43" value="" style="verticalLabelPosition=bottom;verticalAlign=top;html=1;shape=mxgraph.flowchart.on-page_reference;shadow=0;container=0;" vertex="1" parent="77e6c97f196da883-2">
          <mxGeometry x="50" y="346" width="40" height="40" as="geometry" />
        </mxCell>
        <mxCell id="-Oqs4p4Zk8yDsz0VDsW7-42" value="" style="verticalLabelPosition=bottom;verticalAlign=top;html=1;shape=mxgraph.flowchart.on-page_reference;shadow=0;container=0;" vertex="1" parent="77e6c97f196da883-2">
          <mxGeometry x="50" y="215" width="40" height="40" as="geometry" />
        </mxCell>
        <mxCell id="-Oqs4p4Zk8yDsz0VDsW7-48" value="" style="edgeStyle=orthogonalEdgeStyle;rounded=0;orthogonalLoop=1;jettySize=auto;html=1;exitX=0.5;exitY=1;exitDx=0;exitDy=0;exitPerimeter=0;entryX=0.5;entryY=0;entryDx=0;entryDy=0;entryPerimeter=0;" edge="1" parent="77e6c97f196da883-2" source="-Oqs4p4Zk8yDsz0VDsW7-42" target="-Oqs4p4Zk8yDsz0VDsW7-43">
          <mxGeometry relative="1" as="geometry">
            <mxPoint x="70" y="270" as="sourcePoint" />
            <mxPoint x="70" y="340" as="targetPoint" />
          </mxGeometry>
        </mxCell>
        <mxCell id="-Oqs4p4Zk8yDsz0VDsW7-44" value="" style="verticalLabelPosition=bottom;verticalAlign=top;html=1;shape=mxgraph.flowchart.on-page_reference;shadow=0;container=0;" vertex="1" parent="77e6c97f196da883-2">
          <mxGeometry x="55" y="221.25" width="30" height="27.5" as="geometry" />
        </mxCell>
        <mxCell id="-Oqs4p4Zk8yDsz0VDsW7-45" value="" style="verticalLabelPosition=bottom;verticalAlign=top;html=1;shape=mxgraph.flowchart.on-page_reference;shadow=0;container=0;" vertex="1" parent="77e6c97f196da883-2">
          <mxGeometry x="55" y="352.25" width="30" height="27.5" as="geometry" />
        </mxCell>
        <mxCell id="-Oqs4p4Zk8yDsz0VDsW7-47" value="5" style="text;html=1;align=center;verticalAlign=middle;resizable=0;points=[];autosize=1;strokeColor=none;fillColor=none;" vertex="1" parent="77e6c97f196da883-2">
          <mxGeometry x="130" y="215" width="20" height="20" as="geometry" />
        </mxCell>
        <mxCell id="-Oqs4p4Zk8yDsz0VDsW7-50" value="6" style="text;html=1;align=center;verticalAlign=middle;resizable=0;points=[];autosize=1;strokeColor=none;fillColor=none;" vertex="1" parent="77e6c97f196da883-2">
          <mxGeometry x="70" y="290" width="20" height="20" as="geometry" />
        </mxCell>
        <mxCell id="-Oqs4p4Zk8yDsz0VDsW7-51" value="业务改造" style="text;html=1;align=center;verticalAlign=middle;resizable=0;points=[];autosize=1;strokeColor=none;fillColor=none;" vertex="1" parent="77e6c97f196da883-2">
          <mxGeometry x="40" y="255" width="60" height="20" as="geometry" />
        </mxCell>
        <mxCell id="-Oqs4p4Zk8yDsz0VDsW7-54" value="业务灰度" style="text;html=1;align=center;verticalAlign=middle;resizable=0;points=[];autosize=1;strokeColor=none;fillColor=none;" vertex="1" parent="77e6c97f196da883-2">
          <mxGeometry x="40" y="390" width="60" height="20" as="geometry" />
        </mxCell>
        <mxCell id="-Oqs4p4Zk8yDsz0VDsW7-63" value="" style="endArrow=none;dashed=1;html=1;rounded=0;" edge="1" parent="77e6c97f196da883-2">
          <mxGeometry width="50" height="50" relative="1" as="geometry">
            <mxPoint x="-30" y="310" as="sourcePoint" />
            <mxPoint x="640" y="310" as="targetPoint" />
          </mxGeometry>
        </mxCell>
        <mxCell id="77e6c97f196da883-3" value="数据加密脱敏系统" style="swimlane;html=1;startSize=20;" parent="77e6c97f196da883-1" vertex="1">
          <mxGeometry x="160" y="20" width="160" height="480" as="geometry" />
        </mxCell>
        <mxCell id="-Oqs4p4Zk8yDsz0VDsW7-13" value="" style="edgeStyle=orthogonalEdgeStyle;rounded=0;orthogonalLoop=1;jettySize=auto;html=1;" edge="1" parent="77e6c97f196da883-3" source="77e6c97f196da883-11" target="-Oqs4p4Zk8yDsz0VDsW7-9">
          <mxGeometry relative="1" as="geometry" />
        </mxCell>
        <mxCell id="77e6c97f196da883-11" value="服务准入" style="rounded=1;whiteSpace=wrap;html=1;shadow=0;labelBackgroundColor=none;strokeWidth=1;fontFamily=Verdana;fontSize=8;align=center;" parent="77e6c97f196da883-3" vertex="1">
          <mxGeometry x="30" y="65" width="100" height="35" as="geometry" />
        </mxCell>
        <mxCell id="-Oqs4p4Zk8yDsz0VDsW7-10" value="服务准入" style="rounded=1;whiteSpace=wrap;html=1;shadow=0;labelBackgroundColor=none;strokeWidth=1;fontFamily=Verdana;fontSize=8;align=center;" vertex="1" parent="77e6c97f196da883-3">
          <mxGeometry x="30" y="348" width="100" height="35" as="geometry" />
        </mxCell>
        <mxCell id="-Oqs4p4Zk8yDsz0VDsW7-9" value="密钥分发" style="rounded=1;whiteSpace=wrap;html=1;shadow=0;labelBackgroundColor=none;strokeWidth=1;fontFamily=Verdana;fontSize=8;align=center;" vertex="1" parent="77e6c97f196da883-3">
          <mxGeometry x="30" y="217.5" width="100" height="35" as="geometry" />
        </mxCell>
        <mxCell id="-Oqs4p4Zk8yDsz0VDsW7-20" value="3" style="text;html=1;align=center;verticalAlign=middle;resizable=0;points=[];autosize=1;strokeColor=none;fillColor=none;" vertex="1" parent="77e6c97f196da883-3">
          <mxGeometry x="140" y="190" width="20" height="20" as="geometry" />
        </mxCell>
        <mxCell id="-Oqs4p4Zk8yDsz0VDsW7-60" style="edgeStyle=orthogonalEdgeStyle;rounded=0;orthogonalLoop=1;jettySize=auto;html=1;exitX=0.5;exitY=0;exitDx=0;exitDy=0;entryX=0.5;entryY=1;entryDx=0;entryDy=0;" edge="1" parent="77e6c97f196da883-3" source="-Oqs4p4Zk8yDsz0VDsW7-58" target="-Oqs4p4Zk8yDsz0VDsW7-10">
          <mxGeometry relative="1" as="geometry" />
        </mxCell>
        <mxCell id="-Oqs4p4Zk8yDsz0VDsW7-58" value="控制开关" style="rounded=1;whiteSpace=wrap;html=1;shadow=0;labelBackgroundColor=none;strokeWidth=1;fontFamily=Verdana;fontSize=8;align=center;" vertex="1" parent="77e6c97f196da883-3">
          <mxGeometry x="30" y="400" width="100" height="35" as="geometry" />
        </mxCell>
        <mxCell id="-Oqs4p4Zk8yDsz0VDsW7-61" value="8" style="text;html=1;align=center;verticalAlign=middle;resizable=0;points=[];autosize=1;strokeColor=none;fillColor=none;" vertex="1" parent="77e6c97f196da883-3">
          <mxGeometry x="60" y="383" width="20" height="20" as="geometry" />
        </mxCell>
        <mxCell id="77e6c97f196da883-4" value="KMS" style="swimlane;html=1;startSize=20;" parent="77e6c97f196da883-1" vertex="1">
          <mxGeometry x="320" y="20" width="160" height="480" as="geometry" />
        </mxCell>
        <mxCell id="-Oqs4p4Zk8yDsz0VDsW7-8" value="密钥系统" style="rounded=1;whiteSpace=wrap;html=1;shadow=0;labelBackgroundColor=none;strokeWidth=1;fontFamily=Verdana;fontSize=8;align=center;" vertex="1" parent="77e6c97f196da883-4">
          <mxGeometry x="30" y="217.5" width="100" height="35" as="geometry" />
        </mxCell>
        <mxCell id="77e6c97f196da883-5" value="存储" style="swimlane;html=1;startSize=20;" parent="77e6c97f196da883-1" vertex="1">
          <mxGeometry x="480" y="20" width="160" height="480" as="geometry" />
        </mxCell>
        <mxCell id="-Oqs4p4Zk8yDsz0VDsW7-23" value="DB" style="shape=datastore;whiteSpace=wrap;html=1;" vertex="1" parent="77e6c97f196da883-5">
          <mxGeometry x="50" y="336" width="60" height="60" as="geometry" />
        </mxCell>
        <mxCell id="-Oqs4p4Zk8yDsz0VDsW7-15" value="" style="edgeStyle=orthogonalEdgeStyle;rounded=0;orthogonalLoop=1;jettySize=auto;html=1;" edge="1" parent="77e6c97f196da883-1" source="-Oqs4p4Zk8yDsz0VDsW7-6" target="77e6c97f196da883-11">
          <mxGeometry relative="1" as="geometry" />
        </mxCell>
        <mxCell id="-Oqs4p4Zk8yDsz0VDsW7-19" style="edgeStyle=orthogonalEdgeStyle;rounded=0;orthogonalLoop=1;jettySize=auto;html=1;exitX=1;exitY=0.25;exitDx=0;exitDy=0;entryX=0;entryY=0.25;entryDx=0;entryDy=0;" edge="1" parent="77e6c97f196da883-1" source="-Oqs4p4Zk8yDsz0VDsW7-9" target="-Oqs4p4Zk8yDsz0VDsW7-8">
          <mxGeometry relative="1" as="geometry" />
        </mxCell>
        <mxCell id="-Oqs4p4Zk8yDsz0VDsW7-21" style="edgeStyle=orthogonalEdgeStyle;rounded=0;orthogonalLoop=1;jettySize=auto;html=1;exitX=0;exitY=0.75;exitDx=0;exitDy=0;entryX=1;entryY=0.75;entryDx=0;entryDy=0;" edge="1" parent="77e6c97f196da883-1" source="-Oqs4p4Zk8yDsz0VDsW7-8" target="-Oqs4p4Zk8yDsz0VDsW7-9">
          <mxGeometry relative="1" as="geometry" />
        </mxCell>
        <mxCell id="-Oqs4p4Zk8yDsz0VDsW7-22" value="4" style="edgeLabel;html=1;align=center;verticalAlign=middle;resizable=0;points=[];" vertex="1" connectable="0" parent="-Oqs4p4Zk8yDsz0VDsW7-21">
          <mxGeometry x="0.3333" y="3" relative="1" as="geometry">
            <mxPoint y="6" as="offset" />
          </mxGeometry>
        </mxCell>
        <mxCell id="-Oqs4p4Zk8yDsz0VDsW7-24" style="edgeStyle=orthogonalEdgeStyle;rounded=0;orthogonalLoop=1;jettySize=auto;html=1;exitX=1;exitY=0.5;exitDx=0;exitDy=0;" edge="1" parent="77e6c97f196da883-1" source="-Oqs4p4Zk8yDsz0VDsW7-10" target="-Oqs4p4Zk8yDsz0VDsW7-23">
          <mxGeometry relative="1" as="geometry" />
        </mxCell>
        <mxCell id="-Oqs4p4Zk8yDsz0VDsW7-46" value="" style="edgeStyle=orthogonalEdgeStyle;rounded=0;orthogonalLoop=1;jettySize=auto;html=1;" edge="1" parent="77e6c97f196da883-1" source="-Oqs4p4Zk8yDsz0VDsW7-9">
          <mxGeometry relative="1" as="geometry">
            <mxPoint x="90" y="255" as="targetPoint" />
          </mxGeometry>
        </mxCell>
        <mxCell id="-Oqs4p4Zk8yDsz0VDsW7-55" value="" style="edgeStyle=orthogonalEdgeStyle;rounded=0;orthogonalLoop=1;jettySize=auto;html=1;" edge="1" parent="77e6c97f196da883-1" target="-Oqs4p4Zk8yDsz0VDsW7-10">
          <mxGeometry relative="1" as="geometry">
            <mxPoint x="90" y="386" as="sourcePoint" />
          </mxGeometry>
        </mxCell>
        <mxCell id="-Oqs4p4Zk8yDsz0VDsW7-7" value="发起申请" style="text;html=1;align=center;verticalAlign=middle;resizable=0;points=[];autosize=1;strokeColor=none;fillColor=none;" vertex="1" parent="1">
          <mxGeometry x="110" y="160" width="60" height="20" as="geometry" />
        </mxCell>
        <mxCell id="-Oqs4p4Zk8yDsz0VDsW7-14" value="2" style="text;html=1;align=center;verticalAlign=middle;resizable=0;points=[];autosize=1;strokeColor=none;fillColor=none;" vertex="1" parent="1">
          <mxGeometry x="310" y="200" width="20" height="20" as="geometry" />
        </mxCell>
        <mxCell id="-Oqs4p4Zk8yDsz0VDsW7-18" value="1" style="text;html=1;align=center;verticalAlign=middle;resizable=0;points=[];autosize=1;strokeColor=none;fillColor=none;" vertex="1" parent="1">
          <mxGeometry x="200" y="120" width="20" height="20" as="geometry" />
        </mxCell>
        <mxCell id="-Oqs4p4Zk8yDsz0VDsW7-25" value="9" style="text;html=1;align=center;verticalAlign=middle;resizable=0;points=[];autosize=1;strokeColor=none;fillColor=none;" vertex="1" parent="1">
          <mxGeometry x="460" y="400" width="20" height="20" as="geometry" />
        </mxCell>
        <mxCell id="-Oqs4p4Zk8yDsz0VDsW7-56" value="7" style="text;html=1;align=center;verticalAlign=middle;resizable=0;points=[];autosize=1;strokeColor=none;fillColor=none;" vertex="1" parent="1">
          <mxGeometry x="190" y="410" width="20" height="20" as="geometry" />
        </mxCell>
        <mxCell id="-Oqs4p4Zk8yDsz0VDsW7-62" value="" style="endArrow=none;dashed=1;html=1;rounded=0;" edge="1" parent="1">
          <mxGeometry width="50" height="50" relative="1" as="geometry">
            <mxPoint x="40" y="230" as="sourcePoint" />
            <mxPoint x="710" y="230" as="targetPoint" />
          </mxGeometry>
        </mxCell>
        <mxCell id="-Oqs4p4Zk8yDsz0VDsW7-64" value="" style="endArrow=none;dashed=1;html=1;rounded=0;" edge="1" parent="1">
          <mxGeometry width="50" height="50" relative="1" as="geometry">
            <mxPoint x="40" y="540" as="sourcePoint" />
            <mxPoint x="40" y="80" as="targetPoint" />
          </mxGeometry>
        </mxCell>
        <mxCell id="-Oqs4p4Zk8yDsz0VDsW7-65" value="" style="endArrow=none;dashed=1;html=1;rounded=0;exitX=0;exitY=1;exitDx=0;exitDy=0;" edge="1" parent="1" source="77e6c97f196da883-2">
          <mxGeometry width="50" height="50" relative="1" as="geometry">
            <mxPoint x="360" y="310" as="sourcePoint" />
            <mxPoint x="40" y="540" as="targetPoint" />
          </mxGeometry>
        </mxCell>
        <mxCell id="-Oqs4p4Zk8yDsz0VDsW7-66" value="" style="endArrow=none;dashed=1;html=1;rounded=0;exitX=0;exitY=1;exitDx=0;exitDy=0;" edge="1" parent="1">
          <mxGeometry width="50" height="50" relative="1" as="geometry">
            <mxPoint x="70" y="80" as="sourcePoint" />
            <mxPoint x="40" y="80" as="targetPoint" />
          </mxGeometry>
        </mxCell>
        <mxCell id="-Oqs4p4Zk8yDsz0VDsW7-67" value="阶段1" style="text;html=1;align=center;verticalAlign=middle;resizable=0;points=[];autosize=1;strokeColor=none;fillColor=none;" vertex="1" parent="1">
          <mxGeometry x="30" y="160" width="50" height="20" as="geometry" />
        </mxCell>
        <mxCell id="-Oqs4p4Zk8yDsz0VDsW7-70" value="阶段2" style="text;html=1;align=center;verticalAlign=middle;resizable=0;points=[];autosize=1;strokeColor=none;fillColor=none;" vertex="1" parent="1">
          <mxGeometry x="30" y="300" width="50" height="20" as="geometry" />
        </mxCell>
        <mxCell id="-Oqs4p4Zk8yDsz0VDsW7-71" value="阶段3" style="text;html=1;align=center;verticalAlign=middle;resizable=0;points=[];autosize=1;strokeColor=none;fillColor=none;" vertex="1" parent="1">
          <mxGeometry x="30" y="460" width="50" height="20" as="geometry" />
        </mxCell>
        <mxCell id="-Oqs4p4Zk8yDsz0VDsW7-109" value="" style="endArrow=none;html=1;rounded=0;" edge="1" parent="1">
          <mxGeometry width="50" height="50" relative="1" as="geometry">
            <mxPoint x="70" y="-20" as="sourcePoint" />
            <mxPoint x="710" y="-20" as="targetPoint" />
          </mxGeometry>
        </mxCell>
        <mxCell id="-Oqs4p4Zk8yDsz0VDsW7-111" value="" style="endArrow=none;html=1;rounded=0;exitX=0;exitY=0;exitDx=0;exitDy=0;" edge="1" parent="1" source="77e6c97f196da883-1">
          <mxGeometry width="50" height="50" relative="1" as="geometry">
            <mxPoint x="360" y="80" as="sourcePoint" />
            <mxPoint x="70" y="-20" as="targetPoint" />
          </mxGeometry>
        </mxCell>
        <mxCell id="-Oqs4p4Zk8yDsz0VDsW7-112" value="" style="endArrow=none;html=1;rounded=0;exitX=0;exitY=0;exitDx=0;exitDy=0;" edge="1" parent="1">
          <mxGeometry width="50" height="50" relative="1" as="geometry">
            <mxPoint x="710.0000000000002" y="40" as="sourcePoint" />
            <mxPoint x="710" y="-20" as="targetPoint" />
            <Array as="points">
              <mxPoint x="710" y="10" />
            </Array>
          </mxGeometry>
        </mxCell>
        <mxCell id="-Oqs4p4Zk8yDsz0VDsW7-113" value="&lt;ol&gt;&lt;li&gt;支持语言：Go、C++、Python、Nodejs、Java、PHP&lt;/li&gt;&lt;li style=&quot;text-align: left&quot;&gt;支持存储组件类型：CDB、MDB、Redis&lt;/li&gt;&lt;/ol&gt;" style="text;html=1;align=center;verticalAlign=middle;resizable=0;points=[];autosize=1;strokeColor=none;fillColor=none;" vertex="1" parent="1">
          <mxGeometry x="50" y="-20" width="340" height="60" as="geometry" />
        </mxCell>
      </root>
    </mxGraphModel>
  </diagram>
</mxfile>
